# 3ds Max Wavefront OBJ Exporter v0.97b - (c)2007 guruware
# File Created: 22.04.2017 18:18:34

mtllib Hand.mtl

#
# object Box002
#

v  -7.0582 -1.2563 1.4006
v  -7.0582 -0.9663 -2.8288
v  -2.6133 -0.0220 -2.8288
v  -2.6318 -0.3120 1.4006
v  -7.0582 0.2471 1.3266
v  -2.6318 1.1914 1.3266
v  -2.6318 1.4814 -2.8288
v  -7.0582 0.5371 -2.8288
v  -0.1069 -0.3120 1.3266
v  -0.1069 -0.0220 -2.8288
v  -0.1069 1.3129 -2.8288
v  -0.1069 1.0205 1.3266
v  -0.1069 -0.3120 -5.9853
v  -2.5947 -0.3120 -5.9853
v  -2.5947 -0.5213 -6.3771
v  -0.1069 -0.5213 -6.3771
v  -7.0582 0.2471 -6.5530
v  -2.6318 1.1914 -6.5530
v  -2.6318 -0.2225 -7.6984
v  -7.0582 -1.1668 -7.6984
v  -0.1069 1.0253 -6.5269
v  -0.1069 -0.2388 -7.6262
v  -2.5947 -1.1250 -6.5433
v  -0.1069 -1.1250 -6.5433
v  -2.6318 -0.9197 -7.9066
v  -7.0582 -1.8640 -7.9066
v  -0.1069 -0.9308 -7.8335
v  -2.5947 -1.9385 -6.7119
v  -0.1069 -1.9385 -6.7119
v  -2.5578 -1.7303 -8.0080
v  -7.0582 -2.6745 -8.0080
v  -0.1069 -1.7420 -7.9349
v  -0.5517 -0.3767 0.6535
v  -0.5517 -0.3767 -0.6535
v  3.1873 -0.5513 -0.6535
v  3.1873 -0.5513 0.6535
v  -0.3787 0.9189 0.6535
v  3.1012 0.7788 0.6535
v  3.1012 0.7788 -0.6535
v  -0.3787 0.9189 -0.6535
v  3.3257 0.4851 0.6535
v  6.2821 -1.3894 -0.6535
v  3.3257 0.4851 -0.6535
v  3.5929 0.6973 -0.6535
v  6.6377 -0.1317 -0.6535
v  6.2821 -1.3894 0.6535
v  8.2907 -1.2782 -0.0000
v  6.6377 -0.1317 0.6535
v  3.5929 0.6973 0.6535
v  3.3696 0.8139 0.6535
v  3.3696 0.8139 -0.6535
v  -0.3609 -0.2707 -1.4288
v  -0.3609 -0.2707 -2.7358
v  3.9177 -0.5420 -2.7358
v  3.9177 -0.5420 -1.4288
v  -0.1880 1.0248 -1.4288
v  3.7888 0.7938 -1.4288
v  3.7888 0.7938 -2.7358
v  -0.1880 1.0248 -2.7358
v  4.0561 0.4944 -1.4288
v  7.4498 -1.4385 -2.7358
v  4.0561 0.4944 -2.7358
v  4.3620 0.7015 -2.7358
v  7.8358 -0.1848 -2.7358
v  7.4498 -1.4385 -1.4288
v  9.7818 -1.3705 -2.0823
v  7.8358 -0.1848 -1.4288
v  4.3620 0.7015 -1.4288
v  4.1000 0.8232 -1.4288
v  4.1000 0.8232 -2.7358
v  -0.4896 -0.1772 -3.1993
v  -0.4896 -0.1772 -4.5064
v  4.7241 -0.5554 -4.5064
v  4.7241 -0.5554 -3.1993
v  -0.3166 0.9801 -3.1993
v  4.5952 0.7805 -3.1993
v  4.5952 0.7805 -4.5064
v  -0.3166 0.9801 -4.5064
v  4.8625 0.4811 -3.1993
v  8.2562 -1.4519 -4.5064
v  4.8625 0.4811 -4.5064
v  5.1684 0.6881 -4.5064
v  8.6423 -0.1982 -4.5064
v  8.2562 -1.4519 -3.1993
v  10.5882 -1.3839 -3.8528
v  8.6423 -0.1982 -3.1993
v  5.1684 0.6881 -3.1993
v  4.9064 0.8098 -3.1993
v  4.9064 0.8098 -4.5064
v  -0.4666 -0.2707 -4.9927
v  -0.4666 -0.2707 -6.2997
v  3.9177 -0.5420 -6.2997
v  3.9177 -0.5420 -4.9927
v  -0.2936 1.0248 -4.9927
v  3.7888 0.7938 -4.9927
v  3.7888 0.7938 -6.2997
v  -0.2936 1.0248 -6.2997
v  4.0561 0.4944 -4.9927
v  7.4498 -1.4385 -6.2997
v  4.0561 0.4944 -6.2997
v  4.3620 0.7015 -6.2997
v  7.8358 -0.1848 -6.2997
v  7.4498 -1.4385 -4.9927
v  9.7818 -1.3705 -5.6462
v  7.8358 -0.1848 -4.9927
v  4.3620 0.7015 -4.9927
v  4.1000 0.8232 -4.9927
v  4.1000 0.8232 -6.2997
v  -1.1245 -0.4971 -6.3772
v  -1.3156 -1.7663 -6.6304
v  1.6247 -2.2688 -6.7970
v  1.8157 -0.9996 -6.5438
v  -1.1479 -0.2365 -7.6620
v  1.5571 -0.6988 -7.8153
v  1.3661 -1.9680 -8.0685
v  -1.3389 -1.5057 -7.9152
v  1.7970 -0.7911 -7.5716
v  4.4922 -2.8415 -6.5451
v  1.6060 -2.0603 -7.8248
v  1.8146 -2.0478 -8.0785
v  4.6365 -2.6122 -7.8263
v  4.6832 -1.5723 -6.2919
v  6.3593 -2.4358 -6.8889
v  4.8275 -1.3430 -7.5731
v  2.0056 -0.7785 -7.8253
v  1.7911 -0.7250 -7.8977
v  1.6001 -1.9942 -8.1509
v  -2.9818 0.1059 1.7333
v  -7.0678 -0.8384 1.7333
v  -0.2416 1.0606 1.4276
v  -2.5147 1.1459 1.4369
v  -2.9448 0.7735 1.7333
v  -0.3090 0.6111 1.6231
v  -0.1676 -0.2788 1.4270
v  -0.1676 0.9874 1.4270
v  -0.3352 0.0361 1.6231
v  -0.1809 -0.3120 1.4006
v  -7.0595 0.1893 1.4467
v  -2.6627 1.1452 1.4374
v  -0.1809 1.0945 1.3266
v  -0.1809 1.3845 -2.8288
v  -0.1809 1.0945 -6.5530
v  -0.1809 -0.2225 -7.6984
v  -0.1809 -0.9197 -7.9066
v  -0.1809 -1.7303 -8.0080
v  -2.4837 1.1914 1.3266
v  -2.4838 1.4814 -2.8288
v  -7.0582 -1.2563 -5.9853
v  -7.0582 -1.4655 -6.3771
v  -2.4838 1.1914 -6.5530
v  -2.4838 -0.2225 -7.6984
v  -7.0582 -2.0693 -6.5433
v  -2.4838 -0.9197 -7.9066
v  -7.0582 -2.8827 -6.7119
v  -7.0678 -0.1707 1.7333
v  -8.7001 -0.9707 -2.8288
v  -8.7001 -1.2607 -5.0744
v  -8.7001 0.2690 -2.8288
v  -8.7001 -0.0210 -0.9545
v  -8.7001 -1.4333 -5.2951
v  -8.5568 -1.1869 -6.0396
v  -8.2139 -0.1236 -5.3943
v  -8.7001 -1.9311 -5.3888
v  -8.7001 -1.7618 -6.1569
v  -8.7001 -2.6019 -5.4837
v  -8.7001 -2.4302 -6.2140
v  -8.7065 -0.9161 -0.7253
v  -8.7001 -1.2607 -0.9128
v  -8.7010 -0.0687 -0.8868
v  -8.7065 -0.3656 -0.7253
v  -9.7475 -1.2325 -1.3203
v  -9.7475 -0.9856 -2.9522
v  -9.3334 -0.2641 -5.1371
v  -9.7475 0.0703 -2.9522
v  -9.7475 -1.2325 -4.8647
v  -9.7475 -1.3795 -5.0527
v  -9.6254 -1.1697 -5.6867
v  -9.7475 -1.8036 -5.1325
v  -9.7475 -1.6594 -5.7867
v  -9.7475 -2.3748 -5.2133
v  -9.7475 -2.2286 -5.8353
v  -9.7530 -0.9391 -1.1607
v  -9.7483 -0.2174 -1.2982
v  -9.7530 -0.4702 -1.1607
v  -9.7475 -0.1767 -1.3558
v  -13.2470 -1.2325 -1.3203
v  -13.2470 -0.9856 -2.9522
v  -12.8329 -0.2641 -5.1371
v  -13.2470 0.0703 -2.9522
v  -13.2470 -1.2325 -4.8647
v  -13.2470 -1.3795 -5.0527
v  -13.1249 -1.1697 -5.6867
v  -13.2470 -1.8036 -5.1325
v  -13.2470 -1.6594 -5.7867
v  -13.2470 -2.3748 -5.2133
v  -13.2470 -2.2286 -5.8353
v  -13.2525 -0.9391 -1.1607
v  -13.2470 -0.1767 -1.3558
v  -13.2525 -0.4702 -1.1607
v  -1.3474 1.1716 -5.4278
v  -1.3474 1.0866 -6.0010
v  -0.7679 1.0866 -6.0010
v  -0.7679 1.1716 -5.4278
v  -1.0577 1.7023 -5.7995
v  -1.3474 1.3058 -3.8294
v  -1.3474 1.2558 -4.4068
v  -0.7679 1.2558 -4.4068
v  -0.7679 1.3058 -3.8294
v  -1.0577 1.8581 -4.1680
v  -1.3474 1.2617 -1.7428
v  -1.3474 1.3104 -2.3202
v  -0.7679 1.3104 -2.3202
v  -0.7679 1.2617 -1.7428
v  -1.0577 1.8635 -1.9828
v  -1.3474 1.1190 0.4444
v  -1.3474 1.1729 -0.1326
v  -0.7679 1.1729 -0.1326
v  -0.7679 1.1190 0.4444
v  -1.0577 1.7230 0.2099
v  -1.6111 -0.6743 -7.6810
v  -1.6111 -1.2035 -7.9173
v  -1.0316 -1.2035 -7.9173
v  -1.0316 -0.6743 -7.6810
v  -1.3214 -0.7026 -8.3283
# 224 vertices

vn -0.2133 -0.8653 0.4536
vn 0.1064 -0.9943 0.0116
vn 0.1040 -0.9945 0.0120
vn 0.0827 -0.8999 0.4281
vn -0.3657 0.8885 0.2773
vn -0.0939 0.9716 0.2171
vn -0.1044 0.9945 -0.0040
vn -0.1852 0.9827 -0.0040
vn 0.7032 -0.6859 0.1871
vn 0.7257 -0.6880 0.0075
vn 0.9141 0.4056 -0.0015
vn 0.8857 0.3627 0.2897
vn 0.7546 -0.6286 0.1883
vn 0.0986 -0.9542 0.2825
vn 0.0676 -0.6377 0.7673
vn 0.8077 -0.3682 0.4606
vn -0.4016 0.7841 -0.4732
vn -0.0921 0.8865 -0.4534
vn -0.0514 0.4759 -0.8780
vn -0.4115 0.4018 -0.8181
vn 0.8882 0.4053 -0.2163
vn 0.8994 0.2225 -0.3763
vn 0.0252 -0.2362 0.9714
vn 0.7145 -0.1639 0.6802
vn -0.0233 0.2105 -0.9773
vn -0.4020 0.1792 -0.8979
vn 0.9164 0.0834 -0.3914
vn 0.0870 -0.8019 0.5910
vn 0.5867 -0.6586 0.4711
vn 0.0570 -0.5680 -0.8211
vn -0.2759 -0.5778 -0.7681
vn 0.9268 0.0466 -0.3727
vn -0.0339 -0.7259 0.6869
vn -0.0339 -0.7259 -0.6869
vn -0.1055 -0.6726 -0.7324
vn -0.1055 -0.6726 0.7324
vn 0.0276 0.6860 0.7270
vn -0.0308 0.6862 0.7267
vn -0.0308 0.6862 -0.7267
vn 0.0276 0.6860 -0.7270
vn 0.0000 0.0000 1.0000
vn 0.0129 -0.7209 -0.6930
vn 0.0000 0.0000 -1.0000
vn 0.2485 0.6343 -0.7321
vn 0.3826 0.6128 -0.6914
vn 0.0129 -0.7209 0.6930
vn 0.9623 -0.2721 0.0000
vn 0.3826 0.6128 0.6914
vn 0.2485 0.6343 0.7321
vn 0.1334 0.7522 0.6453
vn 0.1334 0.7522 -0.6453
vn -0.0457 -0.7215 0.6909
vn -0.0457 -0.7215 -0.6909
vn -0.1064 -0.6767 -0.7285
vn -0.1064 -0.6767 0.7285
vn 0.0400 0.6893 0.7233
vn -0.0124 0.6891 0.7246
vn -0.0124 0.6890 -0.7246
vn 0.0400 0.6893 -0.7233
vn -0.0000 -0.0000 1.0000
vn -0.0020 -0.7192 -0.6947
vn 0.2299 0.6453 -0.7285
vn 0.3535 0.6251 -0.6960
vn -0.0020 -0.7192 0.6947
vn 0.9664 -0.2571 -0.0000
vn 0.3535 0.6250 0.6961
vn 0.2299 0.6453 0.7285
vn 0.1285 0.7466 0.6528
vn 0.1285 0.7466 -0.6528
vn -0.0524 -0.7225 0.6894
vn -0.0524 -0.7225 -0.6894
vn -0.1096 -0.6773 -0.7275
vn -0.1096 -0.6773 0.7275
vn 0.0277 0.6827 0.7302
vn -0.0185 0.6911 0.7226
vn -0.0185 0.6911 -0.7226
vn 0.0277 0.6827 -0.7302
vn 0.2299 0.6452 -0.7286
vn 0.3535 0.6250 -0.6961
vn 0.2299 0.6452 0.7286
vn 0.1284 0.7466 0.6528
vn 0.1284 0.7466 -0.6528
vn -0.0447 -0.7219 0.6906
vn -0.0447 -0.7219 -0.6906
vn -0.1058 -0.6766 -0.7287
vn -0.1058 -0.6766 0.7287
vn 0.0390 0.6891 0.7236
vn -0.0129 0.6892 0.7245
vn -0.0129 0.6892 -0.7245
vn 0.0390 0.6890 -0.7237
vn 0.1285 0.7466 0.6527
vn 0.1285 0.7466 -0.6527
vn 0.1405 0.5490 0.8240
vn -0.1077 -0.8176 0.5657
vn -0.1626 -0.8277 0.5370
vn 0.0939 0.5690 0.8169
vn 0.1107 0.8293 -0.5478
vn 0.0228 0.8623 -0.5058
vn -0.2407 -0.5681 -0.7869
vn -0.1387 -0.5350 -0.8334
vn 0.1759 0.9654 0.1926
vn 0.0121 -0.8291 0.5589
vn -0.1759 -0.9654 -0.1926
vn 0.0299 -0.6048 -0.7958
vn 0.1833 -0.5855 -0.7897
vn 0.2484 0.5067 0.8255
vn 0.9768 -0.1921 0.0951
vn 0.4169 0.7447 -0.5212
vn 0.2898 0.8116 -0.5073
vn 0.1266 0.7662 -0.6300
vn -0.0891 -0.4717 -0.8772
vn 0.0549 -0.2774 0.9592
vn -0.3894 -0.3159 0.8652
vn 0.2355 0.6867 0.6878
vn 0.0168 0.7940 0.6077
vn -0.0403 0.3768 0.9254
vn 0.4572 0.1156 0.8818
vn 0.4629 -0.4129 0.7844
vn 0.6545 0.2943 0.6964
vn 0.3466 -0.2101 0.9142
vn 0.1793 -0.8731 0.4534
vn -0.4532 0.6771 0.5798
vn -0.0857 0.8168 0.5705
vn 0.4160 0.8666 0.2756
vn 0.3886 0.9214 -0.0037
vn 0.3700 0.8309 -0.4156
vn 0.3585 0.4424 -0.8220
vn 0.3754 0.1901 -0.9072
vn 0.3324 -0.3748 -0.8655
vn 0.0220 0.9727 0.2309
vn 0.0210 0.9998 -0.0040
vn 0.1939 -0.9300 0.3122
vn 0.2903 -0.5529 0.7810
vn 0.0186 0.8862 -0.4630
vn 0.0000 0.4667 -0.8844
vn 0.3108 -0.2189 0.9249
vn -0.0000 0.2059 -0.9786
vn 0.1177 -0.9052 0.4083
vn -0.4613 0.2599 0.8483
vn 0.0097 -0.9998 -0.0160
vn 0.1165 -0.9259 0.3594
vn -0.1736 0.9848 -0.0085
vn -0.3744 0.8756 0.3051
vn 0.3336 -0.5099 0.7929
vn -0.4972 0.4434 -0.7458
vn -0.4583 0.7804 -0.4254
vn 0.3975 -0.1491 0.9054
vn -0.5178 0.1844 -0.8354
vn 0.1515 -0.8033 0.5760
vn -0.5432 -0.5812 -0.6060
vn -0.6413 -0.2024 0.7401
vn -0.1813 -0.9373 0.2977
vn -0.5795 0.5649 0.5874
vn -0.6577 0.1999 0.7263
vn -0.0788 -0.9205 0.3828
vn 0.0071 -1.0000 -0.0057
vn -0.1314 0.8400 -0.5264
vn -0.0879 0.9960 -0.0124
vn 0.0231 -0.9286 0.3704
vn 0.0831 -0.5344 0.8412
vn -0.1427 0.4023 -0.9043
vn 0.1089 -0.1627 0.9807
vn -0.1476 0.1613 -0.9758
vn 0.0091 -0.7801 0.6256
vn -0.2076 -0.5859 -0.7833
vn -0.1916 -0.2528 0.9483
vn -0.1897 0.6619 0.7252
vn -0.2062 0.2434 0.9478
vn -0.1336 0.9270 0.3505
vn -0.5969 -0.7193 0.3553
vn -0.7398 -0.6728 -0.0073
vn -0.4382 0.7532 -0.4905
vn -0.6925 0.7191 -0.0576
vn -0.8973 -0.4107 0.1618
vn -0.8618 -0.2531 0.4395
vn -0.5916 0.4171 -0.6899
vn -0.7123 -0.1141 0.6926
vn -0.7176 0.1848 -0.6715
vn -0.5728 -0.6767 0.4626
vn -0.5854 -0.4759 -0.6564
vn -0.6683 -0.1879 0.7198
vn -0.6274 0.6582 0.4162
vn -0.6579 0.2219 0.7197
vn -0.6626 -0.2480 0.7067
vn -0.6626 -0.4426 -0.6042
vn 0.6626 -0.4426 -0.6042
vn 0.6626 -0.2480 0.7067
vn -0.0000 0.9892 -0.1468
vn -0.6626 -0.2907 0.6902
vn -0.6626 -0.4049 -0.6301
vn 0.6626 -0.4049 -0.6301
vn 0.6626 -0.2907 0.6902
vn 0.0000 0.9963 -0.0862
vn -0.6626 -0.4035 0.6309
vn -0.6626 -0.2921 -0.6896
vn 0.6626 -0.2921 -0.6896
vn 0.6626 -0.4035 0.6309
vn -0.0000 0.9965 0.0841
vn -0.6626 -0.4092 0.6273
vn -0.6626 -0.2859 -0.6922
vn 0.6626 -0.2859 -0.6922
vn 0.6626 -0.4092 0.6273
vn 0.0000 0.9957 0.0931
vn -0.6627 0.4629 0.5887
vn -0.6627 -0.7473 0.0484
vn 0.6627 -0.7473 0.0484
vn 0.6627 0.4629 0.5887
vn 0.0000 0.4077 -0.9131
# 208 vertex normals

vt 1.0000 0.0000 0.0000
vt 1.0000 0.5000 0.0000
vt 0.4923 0.5000 0.0000
vt 0.4998 0.0000 0.0000
vt 0.0000 0.0093 0.0000
vt 0.4746 0.0093 0.0000
vt 0.4746 0.5047 0.0000
vt 0.0000 0.5047 0.0000
vt 0.0100 0.0000 0.0000
vt 0.5050 0.0000 0.0000
vt 0.5047 0.9524 0.0000
vt 0.0093 0.9508 0.0000
vt 0.0000 1.0000 0.0000
vt 0.4847 1.0000 0.0000
vt 0.4746 1.0000 0.0000
vt 1.0000 0.9540 0.0000
vt 1.0000 0.9454 0.0000
vt 1.0000 0.9463 0.0000
vt 0.5107 1.0000 0.0000
vt 0.4874 1.0000 0.0000
vt 1.0000 0.9436 0.0000
vt 1.0000 1.0000 0.0000
vt 0.5000 1.0000 0.0000
vt 0.5000 0.0000 0.0000
vt 0.0000 0.0000 0.0000
vt 0.4600 0.0000 0.0000
vt 0.4600 1.0000 0.0000
vt 0.5000 0.8000 0.0000
vt 0.0000 0.5000 0.0000
vt 0.5400 0.0000 0.0000
vt 0.5400 1.0000 0.0000
vt 0.4818 0.0000 0.0000
vt 0.9694 0.0000 0.0000
vt 0.4816 0.0000 0.0000
vt 0.9570 0.0000 0.0000
vt 0.0000 0.9485 0.0000
vt 0.0000 0.8892 0.0000
vt 0.0299 0.0000 0.0000
vt 0.0000 0.0100 0.0000
vt 0.4742 0.0000 0.0000
vt 0.0093 0.9818 0.0000
vt 0.5058 0.9818 0.0000
vt 1.0000 0.9701 0.0000
vt 0.9485 0.0000 0.0000
vt -0.0042 0.9752 0.0000
vt 0.0052 0.9760 0.0000
vt 0.0000 0.5050 0.0000
vt 0.5002 0.0093 0.0000
vt 0.9701 0.0093 0.0000
vt 0.9701 0.5047 0.0000
vt 0.5002 0.5047 0.0000
vt 0.5002 1.0000 0.0000
vt 0.9701 1.0000 0.0000
vt 1.0023 0.9818 0.0000
# 54 texture coords

o Box002
g Box002
usemtl wire_143225087
s off
f 1/1/1 2/2/2 3/3/3 4/4/4 
f 5/5/5 6/6/6 7/7/7 8/8/8 
f 9/9/9 10/10/10 11/11/11 12/12/12 
f 13/13/13 14/14/14 15/14/15 16/13/16 
f 17/13/17 18/15/18 19/15/19 20/13/20 
f 21/16/21 13/1/13 16/1/16 22/17/22 
f 16/13/16 15/14/15 23/14/23 24/13/24 
f 20/13/20 19/15/19 25/15/25 26/13/26 
f 22/17/22 16/1/16 24/1/24 27/18/27 
f 24/13/24 23/14/23 28/19/28 29/13/29 
f 26/13/26 25/15/25 30/20/30 31/13/31 
f 27/18/27 24/1/24 29/1/29 32/21/32 
f 33/1/33 34/22/34 35/23/35 36/24/36 
f 37/25/37 38/26/38 39/27/39 40/13/40 
f 33/25/33 36/24/36 41/28/41 38/27/38 37/13/37 
f 42/25/42 35/24/35 43/28/43 44/27/44 45/13/45 
f 46/25/46 42/13/42 47/29/47 
f 45/22/45 48/1/48 47/2/47 
f 48/22/48 46/1/46 47/2/47 
f 42/25/42 45/13/45 47/29/47 
f 35/23/35 42/13/42 46/25/46 36/24/36 
f 49/30/49 48/1/48 45/22/45 44/31/44 
f 36/24/36 46/1/46 48/22/48 49/31/49 41/28/41 
f 35/24/35 34/1/34 40/22/40 39/31/39 43/28/43 
f 38/27/38 41/28/41 49/31/49 50/23/50 
f 39/31/39 51/23/51 44/27/44 43/28/43 
f 38/26/38 50/24/50 51/23/51 39/27/39 
f 50/24/50 49/30/49 44/31/44 51/23/51 
f 52/1/52 53/22/53 54/23/54 55/24/55 
f 56/25/56 57/26/57 58/27/58 59/13/59 
f 52/25/52 55/24/55 60/28/60 57/27/57 56/13/56 
f 61/25/61 54/24/54 62/28/43 63/27/62 64/13/63 
f 65/25/64 61/13/61 66/29/65 
f 64/22/63 67/1/66 66/2/65 
f 67/22/66 65/1/64 66/2/65 
f 61/25/61 64/13/63 66/29/65 
f 54/23/54 61/13/61 65/25/64 55/24/55 
f 68/30/67 67/1/66 64/22/63 63/31/62 
f 55/24/55 65/1/64 67/22/66 68/31/67 60/28/60 
f 54/24/54 53/1/53 59/22/59 58/31/58 62/28/43 
f 57/27/57 60/28/60 68/31/67 69/23/68 
f 58/31/58 70/23/69 63/27/62 62/28/43 
f 57/26/57 69/24/68 70/23/69 58/27/58 
f 69/24/68 68/30/67 63/31/62 70/23/69 
f 71/1/70 72/22/71 73/23/72 74/24/73 
f 75/25/74 76/26/75 77/27/76 78/13/77 
f 71/25/70 74/24/73 79/28/60 76/27/75 75/13/74 
f 80/25/61 73/24/72 81/28/43 82/27/78 83/13/79 
f 84/25/64 80/13/61 85/29/65 
f 83/22/79 86/1/66 85/2/65 
f 86/22/66 84/1/64 85/2/65 
f 80/25/61 83/13/79 85/29/65 
f 73/23/72 80/13/61 84/25/64 74/24/73 
f 87/30/80 86/1/66 83/22/79 82/31/78 
f 74/24/73 84/1/64 86/22/66 87/31/80 79/28/60 
f 73/24/72 72/1/71 78/22/77 77/31/76 81/28/43 
f 76/27/75 79/28/60 87/31/80 88/23/81 
f 77/31/76 89/23/82 82/27/78 81/28/43 
f 76/26/75 88/24/81 89/23/82 77/27/76 
f 88/24/81 87/30/80 82/31/78 89/23/82 
f 90/1/83 91/22/84 92/23/85 93/24/86 
f 94/25/87 95/26/88 96/27/89 97/13/90 
f 90/25/83 93/24/86 98/28/41 95/27/88 94/13/87 
f 99/25/61 92/24/85 100/28/43 101/27/62 102/13/79 
f 103/25/64 99/13/61 104/29/65 
f 102/22/79 105/1/66 104/2/65 
f 105/22/66 103/1/64 104/2/65 
f 99/25/61 102/13/79 104/29/65 
f 92/23/85 99/13/61 103/25/64 93/24/86 
f 106/30/67 105/1/66 102/22/79 101/31/62 
f 93/24/86 103/1/64 105/22/66 106/31/67 98/28/41 
f 92/24/85 91/1/84 97/22/90 96/31/89 100/28/43 
f 95/27/88 98/28/41 106/31/67 107/23/91 
f 96/31/89 108/23/92 101/27/62 100/28/43 
f 95/26/88 107/24/91 108/23/92 96/27/89 
f 107/24/91 106/30/67 101/31/62 108/23/92 
f 109/1/93 110/22/94 111/23/95 112/24/96 
f 113/25/97 114/26/98 115/27/99 116/13/100 
f 109/25/93 112/24/96 117/28/101 114/27/98 113/13/97 
f 118/25/102 111/24/95 119/28/103 120/27/104 121/13/105 
f 122/25/106 118/13/102 123/29/107 
f 121/22/105 124/1/108 123/2/107 
f 124/22/108 122/1/106 123/2/107 
f 118/25/102 121/13/105 123/29/107 
f 111/23/95 118/13/102 122/25/106 112/24/96 
f 125/30/109 124/1/108 121/22/105 120/31/104 
f 112/24/96 122/1/106 124/22/108 125/31/109 117/28/101 
f 111/24/95 110/1/94 116/22/100 115/31/99 119/28/103 
f 114/27/98 117/28/101 125/31/109 126/23/110 
f 115/31/99 127/23/111 120/27/104 119/28/103 
f 114/26/98 126/24/110 127/23/111 115/27/99 
f 126/24/110 125/30/109 120/31/104 127/23/111 
f 1/1/1 4/4/4 128/32/112 129/1/113 
f 130/33/114 131/24/115 132/34/116 133/35/117 
f 134/25/118 135/36/119 133/37/117 136/25/120 
f 137/38/121 9/39/9 134/25/118 
f 5/5/5 138/25/122 139/40/123 6/6/6 
f 12/12/12 135/36/119 134/25/118 9/9/9 
f 140/41/124 12/12/12 11/11/11 141/42/125 
f 142/43/126 21/16/21 22/17/22 143/43/127 
f 143/43/127 22/17/22 27/18/27 144/43/128 
f 144/43/128 27/18/27 32/21/32 145/43/129 
f 135/44/119 130/33/114 133/35/117 
f 130/45/114 135/36/119 12/12/12 140/46/124 
f 14/14/14 13/13/13 10/47/10 3/3/3 
f 146/48/130 140/49/124 141/50/125 147/51/131 
f 14/14/14 148/22/132 149/22/133 15/14/15 
f 150/52/134 142/53/126 143/53/127 151/52/135 
f 15/14/15 149/22/133 152/22/136 23/14/23 
f 151/52/135 143/53/127 144/53/128 153/52/137 
f 23/14/23 152/22/136 154/22/138 28/19/28 
f 153/52/137 144/53/128 145/53/129 30/20/30 
f 4/4/4 137/38/121 134/25/118 136/25/120 128/32/112 
f 139/40/123 138/25/122 155/25/139 132/34/116 
f 131/24/115 130/33/114 140/49/124 146/48/130 
f 6/6/6 146/48/130 147/51/131 7/7/7 
f 18/15/18 150/52/134 151/52/135 19/15/19 
f 19/15/19 151/52/135 153/52/137 25/15/25 
f 25/15/25 153/52/137 30/20/30 
f 131/24/115 139/40/123 132/34/116 
f 139/40/123 131/24/115 146/48/130 6/6/6 
f 129/23/113 128/1/112 132/22/116 155/22/139 
f 133/25/117 132/2/116 128/1/112 136/1/120 
f 31/53/31 30/25/30 28/30/28 154/22/138 
f 29/13/29 28/30/28 30/31/30 145/13/129 
f 148/22/132 2/2/2 156/2/140 157/22/141 
f 5/5/5 8/8/8 158/8/142 159/5/143 
f 149/22/133 148/22/132 157/22/141 160/22/144 
f 17/13/17 20/13/20 161/13/145 162/13/146 
f 152/22/136 149/22/133 160/22/144 163/22/147 
f 20/13/20 26/13/26 164/13/148 161/13/145 
f 154/22/138 152/22/136 163/22/147 165/22/149 
f 26/13/26 31/13/31 166/13/150 164/13/148 
f 31/53/31 154/22/138 165/22/149 166/53/150 
f 1/1/1 129/1/113 167/1/151 168/1/152 
f 155/25/139 138/25/122 169/25/153 170/25/154 
f 129/23/113 155/22/139 170/22/154 167/23/151 
f 5/24/5 159/28/143 169/24/153 138/25/122 
f 2/2/2 148/22/132 14/14/14 3/3/3 
f 7/7/7 18/15/18 17/13/17 8/8/8 
f 10/10/10 13/1/13 21/16/21 11/11/11 
f 11/11/11 21/16/21 142/54/126 141/42/125 
f 10/47/10 9/39/9 137/38/121 4/4/4 3/3/3 
f 141/50/125 142/53/126 150/52/134 147/51/131 
f 147/51/131 150/52/134 18/15/18 7/7/7 
f 2/2/2 1/1/1 168/1/152 156/2/140 
f 8/8/8 17/13/17 162/13/146 158/8/142 
f 156/2/140 168/1/152 171/1/155 172/2/156 
f 158/8/142 162/13/146 173/13/157 174/8/158 
f 160/22/144 157/22/141 175/22/159 176/22/160 
f 162/13/146 161/13/145 177/13/161 173/13/157 
f 163/22/147 160/22/144 176/22/160 178/22/162 
f 161/13/145 164/13/148 179/13/163 177/13/161 
f 165/22/149 163/22/147 178/22/162 180/22/164 
f 164/13/148 166/13/150 181/13/165 179/13/163 
f 166/53/150 165/22/149 180/22/164 181/53/165 
f 168/1/152 167/1/151 182/1/166 171/1/155 
f 170/25/154 169/25/153 183/25/167 184/25/168 
f 167/23/151 170/22/154 184/22/168 182/23/166 
f 169/24/153 159/28/143 185/28/169 183/24/167 
f 157/22/141 156/2/140 172/2/156 175/22/159 
f 159/5/143 158/8/142 174/8/158 185/5/169 
f 172/2/156 171/1/155 186/1/170 187/2/171 
f 174/8/158 173/13/157 188/13/172 189/8/173 
f 176/22/160 175/22/159 190/22/174 191/22/175 
f 173/13/157 177/13/161 192/13/176 188/13/172 
f 178/22/162 176/22/160 191/22/175 193/22/177 
f 177/13/161 179/13/163 194/13/178 192/13/176 
f 180/22/164 178/22/162 193/22/177 195/22/179 
f 179/13/163 181/13/165 196/13/180 194/13/178 
f 181/53/165 180/22/164 195/22/179 196/53/180 
f 171/1/155 182/1/166 197/1/181 186/1/170 
f 184/25/168 183/25/167 198/25/182 199/25/183 
f 182/23/166 184/22/168 199/22/183 197/23/181 
f 183/24/167 185/28/169 198/28/182 
f 175/22/159 172/2/156 187/2/171 190/22/174 
f 185/5/169 174/8/158 189/8/173 198/5/182 
s 2
f 200/1/184 201/22/185 202/13/186 203/25/187 
s 8
f 200/25/184 203/1/187 204/23/188 
s 16
f 203/25/187 202/1/186 204/23/188 
s 32
f 202/25/186 201/1/185 204/23/188 
s 64
f 201/25/185 200/1/184 204/23/188 
s 2
f 205/1/189 206/22/190 207/13/191 208/25/192 
s 8
f 205/25/189 208/1/192 209/23/193 
s 16
f 208/25/192 207/1/191 209/23/193 
s 32
f 207/25/191 206/1/190 209/23/193 
s 64
f 206/25/190 205/1/189 209/23/193 
s 2
f 210/1/194 211/22/195 212/13/196 213/25/197 
s 8
f 210/25/194 213/1/197 214/23/198 
s 16
f 213/25/197 212/1/196 214/23/198 
s 32
f 212/25/196 211/1/195 214/23/198 
s 64
f 211/25/195 210/1/194 214/23/198 
s 2
f 215/1/199 216/22/200 217/13/201 218/25/202 
s 8
f 215/25/199 218/1/202 219/23/203 
s 16
f 218/25/202 217/1/201 219/23/203 
s 32
f 217/25/201 216/1/200 219/23/203 
s 64
f 216/25/200 215/1/199 219/23/203 
s 2
f 220/1/204 221/22/205 222/13/206 223/25/207 
s 8
f 220/25/204 223/1/207 224/23/208 
s 16
f 223/25/207 222/1/206 224/23/208 
s 32
f 222/25/206 221/1/205 224/23/208 
s 64
f 221/25/205 220/1/204 224/23/208 
s 1
f 198/28/182 189/13/173 187/27/171 186/24/170 
s 2
f 190/25/174 187/27/171 189/13/173 188/26/172 
s 1
f 194/24/178 196/27/180 195/28/179 193/25/177 
f 188/26/172 192/13/176 191/27/175 190/25/174 
s 2
f 192/13/176 194/24/178 193/25/177 191/27/175 
f 199/25/183 198/24/182 186/24/170 197/13/181 
# 163 polygons - 45 triangles

